<svg width="20" height="24" viewBox="0 0 20 24" fill="none" xmlns="http://www.w3.org/2000/svg">
<path d="M10.3772 23.4775C10.0152 23.7852 9.48474 23.7852 9.12274 23.4775C7.60176 22.1845 6.18196 20.7859 4.87498 19.293C2.64642 16.7455 1.23081e-06 12.9516 1.23081e-06 9.33636C-0.00197406 5.56053 2.37376 2.15569 6.0186 0.710666C9.66344 -0.73436 13.8589 0.0652571 16.6473 2.73639C18.481 4.4835 19.5081 6.86005 19.5 9.33636C19.5 12.9516 16.8535 16.7455 14.6249 19.293C13.3179 20.7859 11.8981 22.1845 10.3772 23.4775ZM9.74995 5.33718C8.2571 5.33718 6.87765 6.09942 6.13122 7.33677C5.3848 8.57412 5.3848 10.0986 6.13122 11.3359C6.87765 12.5733 8.2571 13.3355 9.74995 13.3355C12.0577 13.3355 13.9285 11.545 13.9285 9.33636C13.9285 7.12767 12.0577 5.33718 9.74995 5.33718Z" fill="black" fill-opacity="0.2"/>
</svg>
